<svg id="Camada_1" data-name="Camada 1" xmlns="http://www.w3.org/2000/svg" viewBox="0 0 197 197"><defs><style>.cls-3{fill:#8314f7}</style></defs><rect x=".11" y="-.1" width="197.1" height="197.1" rx="44.47" ry="44.47" fill="#fff"/><path id="_Caminho_composto_" data-name="&lt;Caminho composto&gt;" d="M157.77 119.57L98.34 16.63l-60.79 102.9 7.74 4.57 3.71-6.22a22.67 22.67 0 0 1 18.44-9c12.06 0 21.87 8.72 21.87 19H106c0-10.27 9.81-19 21.87-19a23 23 0 0 1 20.8 12.94l1.32 2.29zm-29.91-19.7c-14.88 0-27.33 9.61-30.22 22.32-2.89-12.72-15.35-22.35-30.22-22.35A32.87 32.87 0 0 0 59 101l39.25-66.55 38.48 66.66a32.91 32.91 0 0 0-8.87-1.23z" fill="#0072ff"/><g id="_Grupo_" data-name="&lt;Grupo&gt;"><path id="_Caminho_" data-name="&lt;Caminho&gt;" class="cls-3" d="M86.44 64.72h22.75l-11.38-18.6-11.37 18.6z"/><path id="_Caminho_2" data-name="&lt;Caminho&gt;" class="cls-3" d="M37.49 138.07h8.99v37.61h-8.99z"/><path id="_Caminho_3" data-name="&lt;Caminho&gt;" class="cls-3" d="M148.84 138.07h8.99v37.61h-8.99z"/><path id="_Caminho_4" data-name="&lt;Caminho&gt;" class="cls-3" d="M93.32 138.07h8.99v22.21h-8.99z"/></g></svg>